<?xml version="1.0" standalone="no"?>
<!DOCTYPE svg PUBLIC "-//W3C//DTD SVG 20010904//EN"
 "http://www.w3.org/TR/2001/REC-SVG-20010904/DTD/svg10.dtd">
<svg version="1.0" xmlns="http://www.w3.org/2000/svg"
 width="512.000000pt" height="512.000000pt" viewBox="0 0 512.000000 512.000000"
 preserveAspectRatio="xMidYMid meet">
<metadata>
Created by potrace 1.14, written by Peter Selinger 2001-2017
</metadata>
<g transform="translate(0.000000,512.000000) scale(0.100000,-0.100000)"
fill="#000000" stroke="none">
<path d="M2410 5084 c-267 -23 -427 -56 -650 -130 -467 -156 -885 -453 -1191
-844 -290 -371 -475 -843 -518 -1320 -61 -669 147 -1327 587 -1859 245 -296
594 -548 977 -706 492 -204 1076 -240 1605 -100 222 60 533 197 716 318 211
139 445 349 587 527 303 379 479 793 548 1290 18 122 17 485 0 610 -63 458
-224 855 -494 1217 -146 195 -403 436 -617 580 -305 204 -689 349 -1060 399
-107 14 -408 25 -490 18z m1430 -1341 c389 -80 645 -427 701 -951 15 -140 7
-424 -15 -545 -86 -470 -352 -769 -740 -832 -199 -32 -386 -5 -556 81 -81 40
-118 68 -199 147 -150 147 -248 356 -297 637 -28 161 -26 486 4 639 67 335
201 564 415 710 179 122 439 165 687 114z m-1656 -19 c13 -5 16 -24 16 -106
l0 -100 -227 -236 c-125 -131 -269 -280 -319 -332 -51 -52 -90 -98 -88 -102 3
-4 18 -8 34 -8 81 0 246 -51 346 -107 68 -38 167 -135 214 -209 79 -125 111
-242 111 -404 0 -131 -19 -214 -73 -330 -34 -70 -55 -100 -127 -170 -101 -100
-201 -156 -346 -192 -117 -29 -321 -31 -439 -5 -211 47 -391 176 -481 348 -38
72 -85 236 -85 295 l0 34 139 0 139 0 16 -70 c20 -90 47 -142 107 -206 178
-187 561 -190 742 -6 89 91 122 190 115 345 -4 90 -9 110 -38 172 -55 116
-154 194 -291 230 -39 11 -117 15 -286 15 l-233 0 0 108 0 107 313 324 c171
178 314 328 315 332 2 5 -222 9 -497 9 l-501 0 0 128 c0 71 3 132 7 135 8 9
1396 9 1417 1z"/>
<path d="M3512 3475 c-267 -58 -443 -286 -498 -645 -18 -119 -18 -355 0 -480
47 -333 201 -561 431 -639 136 -45 300 -36 430 24 273 126 421 498 385 970
-11 154 -29 244 -71 360 -113 311 -382 474 -677 410z"/>
</g>
</svg>
